<?xml version="1.0" standalone="no"?>
<!DOCTYPE svg PUBLIC "-//W3C//DTD SVG 20010904//EN"
 "http://www.w3.org/TR/2001/REC-SVG-20010904/DTD/svg10.dtd">
<svg version="1.0" xmlns="http://www.w3.org/2000/svg"
 width="23.000000pt" height="23.000000pt" viewBox="0 0 23.000000 23.000000"
 preserveAspectRatio="xMidYMid meet">

<g transform="translate(0.000000,23.000000) scale(0.100000,-0.100000)"
fill="#000000" stroke="none">
<path d="M17 223 c25 -5 43 -53 43 -115 0 -21 4 -38 9 -38 5 0 7 -9 4 -21 -5
-17 -2 -20 13 -17 11 2 18 11 18 21 -1 13 6 17 31 17 25 0 32 -4 31 -17 0 -10
7 -19 16 -21 14 -3 17 3 16 22 -2 25 -5 26 -65 26 -35 0 -63 4 -63 10 0 6 28
10 65 10 71 0 71 0 89 73 l6 27 -84 0 c-65 0 -85 3 -90 15 -3 9 -17 14 -33 14
-23 -1 -24 -2 -6 -6z"/>
</g>
</svg>
